<?xml version="1.0" standalone="no"?>
<!DOCTYPE svg PUBLIC "-//W3C//DTD SVG 20010904//EN"
 "http://www.w3.org/TR/2001/REC-SVG-20010904/DTD/svg10.dtd">
<svg version="1.0" xmlns="http://www.w3.org/2000/svg"
 width="1939.000000pt" height="269.000000pt" viewBox="0 0 1939.000000 269.000000"
 preserveAspectRatio="xMidYMid meet">
<metadata>
Created by potrace 1.13, written by Peter Selinger 2001-2015
</metadata>
<g transform="translate(0.000000,269.000000) scale(0.100000,-0.100000)"
fill="#000000" stroke="none">
<path d="M10 1344 c0 -1151 2 -1345 14 -1341 8 3 305 199 660 436 355 237 648
431 651 431 3 0 296 -194 651 -431 355 -237 652 -433 660 -436 12 -4 14 116
14 821 l0 826 -55 0 -55 0 0 -725 0 -725 -602 402 c-332 221 -607 401 -613
401 -6 0 -281 -180 -613 -401 -331 -221 -604 -402 -607 -402 -3 0 -5 538 -5
1195 l0 1195 1275 0 1275 0 0 50 0 50 -1325 0 -1325 0 0 -1346z"/>
<path d="M15695 2010 c-222 -45 -406 -204 -487 -423 -25 -67 -31 -103 -36
-194 -5 -126 6 -203 45 -303 101 -256 340 -420 613 -420 251 0 474 138 584
362 55 110 76 199 76 324 0 189 -62 338 -199 474 -97 96 -169 138 -297 170
-81 21 -221 25 -299 10z m284 -97 c96 -26 172 -72 247 -147 183 -184 223 -451
104 -693 -96 -195 -288 -316 -500 -316 -152 0 -280 54 -391 164 -233 232 -236
614 -6 844 151 151 346 204 546 148z"/>
<path d="M17302 2000 c-223 -59 -407 -243 -468 -470 -23 -88 -24 -263 -1 -350
9 -36 36 -103 58 -150 34 -69 58 -101 128 -170 135 -134 269 -190 456 -190
186 0 321 56 456 190 68 66 96 103 127 166 201 401 3 868 -414 974 -101 26
-242 26 -342 0z m271 -75 c216 -38 396 -206 451 -421 20 -78 21 -222 1 -299
-67 -264 -295 -449 -550 -448 -150 0 -280 56 -391 167 -114 115 -174 260 -174
423 0 110 14 172 62 271 80 168 238 284 428 311 78 12 86 12 173 -4z"/>
<path d="M7430 2003 c0 -4 74 -298 165 -654 91 -356 165 -650 165 -653 0 -3
51 -6 113 -6 l114 0 121 458 c67 251 124 476 128 499 8 52 19 48 28 -9 4 -24
56 -230 117 -458 60 -228 114 -432 120 -452 l10 -38 112 0 112 0 169 648 c93
356 172 653 174 660 3 9 -20 12 -96 12 -87 0 -101 -2 -106 -17 -20 -65 -256
-1016 -257 -1035 -1 -12 -7 2 -13 32 -7 30 -70 272 -141 538 l-129 482 -88 0
c-48 0 -88 -2 -88 -4 0 -2 -43 -165 -96 -363 -53 -197 -115 -434 -139 -528
-29 -114 -45 -161 -49 -145 -8 41 -131 558 -191 808 l-57 232 -99 0 c-54 0
-99 -3 -99 -7z"/>
<path d="M9420 1350 l0 -660 95 0 95 0 0 290 0 290 335 0 335 0 0 -290 0 -290
100 0 100 0 0 660 0 660 -100 0 -100 0 0 -285 0 -285 -335 0 -335 0 0 285 0
285 -95 0 -95 0 0 -660z"/>
<path d="M10930 1350 l0 -660 100 0 100 0 0 660 0 660 -100 0 -100 0 0 -660z"/>
<path d="M11420 1925 l0 -85 225 0 225 0 0 -575 0 -575 95 0 95 0 0 575 0 575
225 0 225 0 0 85 0 85 -545 0 -545 0 0 -85z"/>
<path d="M12800 1350 l0 -660 400 0 400 0 0 85 0 85 -305 0 -305 0 0 205 0
205 235 0 235 0 0 85 0 85 -235 0 -235 0 0 200 0 200 290 0 290 0 0 85 0 85
-385 0 -385 0 0 -660z"/>
<path d="M3520 1960 l0 -40 245 0 245 0 0 -615 0 -615 45 0 45 0 0 615 0 615
240 0 240 0 0 40 0 40 -530 0 -530 0 0 -40z"/>
<path d="M4900 1345 l0 -655 45 0 45 0 0 305 0 305 405 0 405 0 0 -305 0 -305
45 0 45 0 0 655 0 655 -45 0 -45 0 0 -305 0 -305 -405 0 -405 0 0 305 0 305
-45 0 -45 0 0 -655z"/>
<path d="M6400 1345 l0 -655 375 0 375 0 0 40 0 40 -330 0 -330 0 0 270 0 270
255 0 255 0 0 40 0 40 -255 0 -255 0 0 265 0 265 315 0 315 0 0 40 0 40 -360
0 -360 0 0 -655z"/>
<path d="M14000 1346 l0 -656 259 0 c232 0 266 2 324 20 89 28 154 81 197 161
34 62 35 67 35 179 0 103 -3 121 -26 171 -31 66 -87 124 -143 150 -23 10 -36
19 -30 19 23 0 96 75 122 124 24 46 27 61 27 156 0 90 -4 112 -23 152 -32 64
-85 116 -151 147 -55 26 -59 26 -323 29 l-268 3 0 -655z m535 550 c51 -22 91
-60 118 -111 30 -57 30 -174 -1 -231 -29 -56 -93 -109 -147 -123 -24 -6 -127
-11 -229 -11 l-186 0 0 251 0 251 203 -4 c164 -3 209 -7 242 -22z m33 -585
c222 -99 211 -451 -17 -522 -20 -6 -132 -14 -248 -16 l-213 -5 0 287 0 287
213 -4 c196 -3 216 -6 265 -27z"/>
<path d="M18550 1345 l0 -655 45 0 45 0 0 325 0 325 114 0 114 0 199 -322 198
-323 53 -3 c29 -2 52 1 52 7 0 5 -94 160 -209 345 l-210 336 200 306 c109 168
199 307 199 310 0 2 -24 4 -54 4 l-54 0 -184 -287 -184 -288 -117 -3 -117 -3
0 291 0 290 -45 0 -45 0 0 -655z"/>
</g>
</svg>
